<svg xmlns="http://www.w3.org/2000/svg" viewBox="0 0 1000 1000" width="1000" height="1000" fill="none">
  <path d="M 403.910 80.490 C 442.690 0.000 557.310 0.000 596.090 80.490 C 619.880 129.870 676.960 153.510 728.700 135.410 C 813.030 105.920 894.080 186.970 864.590 271.300 C 846.490 323.040 870.130 380.120 919.510 403.910 C 1000.000 442.690 1000.000 557.310 919.510 596.090 C 870.130 619.880 846.490 676.960 864.590 728.700 C 894.080 813.030 813.030 894.080 728.700 864.590 C 676.960 846.490 619.880 870.130 596.090 919.510 C 557.310 1000.000 442.690 1000.000 403.910 919.510 C 380.120 870.130 323.040 846.490 271.300 864.590 C 186.970 894.080 105.920 813.030 135.410 728.700 C 153.510 676.960 129.870 619.880 80.490 596.090 C 0.000 557.310 0.000 442.690 80.490 403.910 C 129.870 380.120 153.510 323.040 135.410 271.300 C 105.920 186.970 186.970 105.920 271.300 135.410 C 323.040 153.510 380.120 129.870 403.910 80.490 Z" fill="none" stroke="#2C4F35" stroke-width="5"/>
</svg>
