<?xml version="1.0" encoding="UTF-8"?>
<svg id="Layer_1" data-name="Layer 1" xmlns="http://www.w3.org/2000/svg" viewBox="0 0 1539.15 2400.61">
  <defs>
    <style>
      .cls-1 {
        fill: #550100;
      }
    </style>
  </defs>
  <g>
    <path class="cls-1" d="M1010.01,195.71v3.99h8.64c5.76,0,8.19,3.76,7.52,10.85-.44,7.53-2.88,14.83-7.52,23.69l-26.12,43.17-.44.44s.22,0,0,.22l-10.85,17.49c1.33,0,2.65.22,3.76.22,5.53.22,10.85.44,16.16.89l.66-1.11c.22-.22.22-.44.22-.44l9.52-15.28,19.93-32.77c5.75-9.96,14.83-20.81,28.12-31.88,12.84-11.73,23.24-16.6,31.88-15.5v-3.99h-81.48Z"/>
    <g>
      <path class="cls-1" d="M1379.08,572.75c0-165.38-132.84-275.2-367.52-292.91-1.11-.22-2.21-.22-3.32-.44,0-.66,0-1.33.22-1.99h-16.16q0,.22-.22.44s.22,0,0,.22c-16.6-.89-33.43-1.33-50.92-1.33-82.8,0-163.62,11.73-239.55,32.99-13.28,3.54-26.12,7.31-38.97,11.51-10.41,3.32-20.81,6.64-30.99,10.41-12.84,4.65-25.46,9.52-37.86,14.83-8.19,3.32-16.6,6.64-24.8,10.41-9.96,3.99-19.92,8.63-29.45,13.5-22.36,10.41-43.84,22.14-64.2,34.54-176.01,104.06-293.35,257.26-293.35,403.16,0,125.53,79.93,174.9,185.31,174.9,186.86,0,335.41-163.61,417.55-318.59,2.22-4.21,5.53-10.18,9.74-17.49,10.63-18.15,26.57-44.94,45.39-75.94,56.01-92.99,135.94-223.61,161.18-274.31h.22c224.49,16.6,303.53,127.3,303.53,266.56,0,189.3-135.94,313.28-379.92,299.11v19.04c125.53,2.88,183.1,60.22,183.1,162.06,0,27.45-4.43,58.67-13.29,91.88v.22c-.66,2.65-1.33,5.31-1.99,7.97-.44,2.66-1.11,5.31-1.99,8.19-22.36,76.6-65.09,160.73-122.43,224.94-20.59,24.13-43.84,45.61-68.64,62.66v34.32c23.91-9.96,46.72-22.36,68.64-36.75,96.75-64.43,170.47-168.26,195.72-275.64,1.55-6.2,2.88-12.84,4.21-19.04,3.54-19.93,5.31-39.41,5.31-58.89,0-108.26-68.41-184.42-176.23-203.46v-1.77c197.04-11.07,381.69-125.53,381.69-305.3ZM830.24,552.83c-17.05,26.79-32.99,51.81-46.27,72.84-19.26,30.33-33.21,52.47-37.41,59.78-92.76,164.5-183.1,253.28-373.5,280.07-99.84,14.17-143.46-65.09-143.46-154.09,0-137.49,96.09-279.62,247.75-379.92,22.8-15.5,46.93-29.45,72.18-42.28,17.49-9.3,35.2-17.49,53.8-25.46,12.4-5.31,24.79-10.41,37.41-14.83,9.96-3.98,20.15-7.53,30.56-10.85,12.84-4.21,25.9-8.19,39.19-11.73,72.4-20.37,149.89-31.66,230.69-31.66,14.17,0,27.23.44,40.07.88,1.33,0,2.65.22,3.76.22-22.8,46.94-95.65,163.17-154.76,257.04ZM1176.5,394.53c-139.26,108.48-237.34,237.12-367.96,460.73-5.76,9.52-11.29,19.26-17.05,29-13.72,23.25-27.23,46.94-41.4,71.07-150.77,255.49-334.53,528.7-560.8,528.7-113.8,0-166.93-62.21-166.93-152.54,0-57.56,75.49-52.69,75.49-101.84,0-12.84-9.08-24.13-26.57-24.13-38.52,0-69.52,50.92-69.52,114.91,0,109.81,66.64,181.1,187.52,181.1,254.61,0,485.74-265.01,646.92-546.19,1.33-2.66,2.88-5.53,4.65-8.41,10.41-18.6,20.81-37.2,30.56-56.01,164.27-308.63,211.87-400.73,313.72-481.76l-8.64-14.61Z"/>
      <path class="cls-1" d="M1487.79,1684.17c-34.54-65.98-79.92-116.01-136.38-150.11-56.68-34.32-116.9-51.81-181.54-51.81,1.77,0,11.96-2.44,31.22-7.31,19.26-5.09,46.72-19.93,82.8-45.16,35.64-25.02,53.35-65.09,53.35-121.11,0-46.05-14.39-82.36-43.84-109.37-29.44-27.45-64.65-45.16-106.04-53.8-5.76-1.33-12.18-2.21-19.04-3.32-19.49-2.88-44.06-5.09-73.51-6.64-.66,2.65-1.33,5.31-1.99,7.97-.44,2.66-1.11,5.31-1.99,8.19,30.99,1.99,55.79,4.87,73.28,9.52,7.52,1.55,13.72,3.76,18.59,5.76,57.12,21.47,86.35,68.86,86.35,141.69,0,67.08-31.22,115.57-92.55,145.9-30.33,12.84-75.72,20.81-137.49,23.69h-70.62v-101.62c-20.59,24.13-43.84,45.61-68.64,62.66v111.81c-64.2,21.47-123.09,58.89-176.23,111.58-39.63,40.07-70.85,87.01-91.88,140.37-21.7,54.02-32.32,108.71-32.32,164.5s10.41,111.58,30.99,162.95c20.81,51.37,50.48,98.3,89.22,139.7,84.35,87.01,193.94,130.4,328.11,130.4,79.92,0,158.3-19.92,234.01-59.55,75.94-40.3,137.71-96.97,185.76-170.7,47.6-73.95,71.73-158.08,71.73-252.39s-17.05-167.82-51.37-233.79ZM1428.45,2135.82c-27.67,73.73-73.73,135.49-137.04,185.75-63.99,50.04-145.24,75.05-243.76,75.05-133.06,0-241.55-43.61-326.12-131.07-37.42-39.85-65.98-85.68-87.01-137.05-20.81-51.58-31.22-105.39-31.22-160.96s10.85-108.04,32.32-161.18c21.7-52.69,52.25-99.41,92.54-139.26,48.49-51.81,105.61-88.12,171.58-109.37v235.79c0,30.33-5.75,54.24-17.05,73.06-10.41,14.39-21.03,21.47-32.32,21.47v4.21h165.39v-4.21c-13.29,0-24.13-7.97-33.65-23.69-9.08-15.72-13.73-32.32-13.73-49.37v-272.54c11.29-2.88,29-4.21,53.58-4.21v-4.21c-24.57,0-42.28.44-53.58,2.21v-41.18h90.11c71.51,0,138.37,14.61,200.58,43.17,61.99,28.56,113.14,74.17,152.32,137.27,39.41,62.88,58.89,143.25,58.89,240.22,0,73.06-13.72,146.34-41.84,220.07ZM972.6,1147.94c8.42,0,17.05,0,25.24.44v-.44h-25.24Z"/>
      <path class="cls-1" d="M1094.77,1135.32c-1.23,5.38-2.48,10.78-4.14,16.16-14.92-1.24-31.08-2.07-48.9-2.48-10.36,0-21.15-.41-32.33-.83h-11.6v-.41h-25.28l-50.56.41h-1.66c-.15.02-.31.05-.46.08-32.73,5.32-65.01,14.79-94.23,30.47-51.86,27.83-92.62,64.64-120.8,105.79-2.07,2.49-4.14,5.39-5.39,8.29-21.54,33.98-33.56,69.21-33.56,101.95,0,11.18,1.24,21.14,3.73,30.25,0,.41,0,.83.4,1.24,11.19,38.12,44.34,57.6,97.8,57.6,14.92,0,29.84-1.66,44.34-5.39,30.67-6.63,60.09-20.31,87.43-39.37v34.39c-11.6,4.97-22.78,9.12-34.8,12.85-25.7,7.87-52.22,12.84-79.57,14.5h-1.24c-5.38.41-10.76.41-16.16.41-66.72,0-106.51-26.52-117.7-77.08-2.06-9.95-3.31-20.72-3.31-32.74,0-54.29,34.8-118.93,92.41-171.98,2.48-2.48,4.97-4.56,7.87-6.63,15.59-12.98,32.07-24.61,48.99-34.88,52.04-31.58,113.21-45.53,174.08-45.51,40.7.01,76.17.44,107.21,2.07,5.81,0,11.6.41,17.4.83Z"/>
      <path class="cls-1" d="M997.81,1147.75v.41c-8.3-.41-17-.41-25.28-.41h25.28Z"/>
    </g>
  </g>
  <path class="cls-1" d="M839.98,570.98c-18.82,30.99-34.76,57.78-45.39,75.94l-10.63-21.25-66.2-131.29-9.52-17.49-67.53-127.97-9.08-17.27-5.09-9.74c-51.37-97.42-105.16-169.37-162.06-216.75-56.24-47.16-118.89-77.49-187.52-90.33-28.78-5.76-59.33-8.63-92.1-8.63C127.3,6.2,66.86,17.71,2.21,40.52l-2.21-3.99C63.09,11.96,130.18,0,201.91,0c29.89,0,58.9,1.99,85.68,6.2,92.99,14.61,172.91,45.61,239.11,93.65,64.2,45.61,122.43,115.79,174.9,209.88,2.22,3.98,4.43,7.97,6.64,12.18l2.22,4.43,66.64,125.31,8.64,17.05,44.5,84.13,9.74,18.16Z"/>
</svg>