<?xml version="1.0" encoding="UTF-8"?>
<svg id="Layer_1" data-name="Layer 1" xmlns="http://www.w3.org/2000/svg" viewBox="0 0 3410.81 2002.82">
  <defs>
    <style>
      .cls-1 {
        fill: #550100;
      }
    </style>
  </defs>
  <g>
    <path class="cls-1" d="M1120.06,300.16c0-137.11-120.87-223.8-331.17-223.8-304.38,0-573.95,209.25-573.95,401.62,0,95.13,60.33,132.26,139.85,132.26,187.94,0,294.25-183.93,313.24-336.65h-12.23c-16.87,143.23-121.92,323.57-296.57,323.57-76.15,0-108.42-49.36-108.42-116.64,0-190.05,241.52-390.86,538.09-390.86,204.82,0,275.27,89.01,275.27,203.13,0,143.23-102.94,237.09-287.5,226.12v14.56c94.92,2.32,138.58,45.56,138.58,122.55,0,117.91-110.74,333.06-257.34,333.06-50.2,0-77.2-22.78-77.2-67.29,0-68.55,68.34-152.72,172.33-186.47l-3.37-12.02c-107.37,33.75-183.51,126.35-183.51,195.96,0,54.21,31.43,83.11,91.76,83.11,161.15,0,306.7-166.01,306.7-316.19,0-81.85-51.47-139.64-133.31-153.98v-1.27c148.92-8.44,288.77-94.92,288.77-230.76ZM966.71,165.37c-109.69,85.43-185.62,187.52-290.88,370.4-119.6,206.72-268.52,453.3-455.2,453.3-86.27,0-126.56-46.83-126.56-115.38,0-43.24,57.16-39.65,57.16-76.99,0-9.7-6.75-18.14-20.25-18.14-29.11,0-52.52,38.6-52.52,86.7,0,82.9,50.41,137.11,142.17,137.11,206.93,0,393.6-232.03,515.73-461.74,124.03-233.29,159.89-303.11,237.09-364.49l-6.75-10.76Z"/>
    <path class="cls-1" d="M1354.83,784.67l-86.06,111.8c-43.66,56.53-78.26,91.33-108.63,91.33-15.61,0-23.41-10.76-23.41-27.63,0-20.46,13.5-46.83,42.61-87.75l92.81-137.11c30.16-45.56,45.77-76.99,45.77-108.21,0-43.24-21.3-58.85-62.65-62.44-22.36-2.53-34.59-4.85-34.59-22.99,0-36.07,61.38-34.8,61.38-70.87,0-9.49-6.54-17.93-20.04-17.93-33.54,0-54.84,49.15-54.84,84.16,0,16.66,6.75,26.37,17.93,32.48-45.77,68.34-92.81,134.57-154.4,215.15h13.5c55.9-73.4,112.85-152.72,154.4-210.51,4.43,1.27,9.91,2.53,16.66,2.53,25.73,2.32,31.43,10.76,31.43,31.22,0,29.95-23.62,61.38-57.16,111.79l-99.56,149.13c-16.66,24.05-25.73,49.36-25.73,74.67,0,34.8,18.98,58.85,45.98,58.85,45.77,0,79.31-39.66,125.3-97.45,30.16-37.34,62.65-82.9,92.81-120.23h-13.5Z"/>
    <path class="cls-1" d="M1608.8,425.45c-19.2,0-33.75,16.88-33.75,36.07,0,20.46,14.55,34.81,33.75,34.81,17.72,0,32.27-14.34,32.27-34.81,0-19.19-14.55-36.07-32.27-36.07ZM1568.51,784.67c-26.79,34.8-58.22,75.73-87.33,111.8-42.4,56.53-77.2,91.33-107.37,91.33-15.61,0-23.41-10.76-23.41-27.63,0-20.46,14.55-45.56,41.34-87.75l185.83-295.73h-54.84c-52.73,66.02-106.31,126.14-167.9,207.98h13.5c35.65-46.83,79.31-101.04,117.49-141.96h1.05l-143.22,226.12c-16.87,24.05-25.73,49.36-25.73,74.67,0,34.8,17.93,58.85,45.98,58.85,45.77,0,79.31-39.66,125.3-97.45,28.9-37.34,62.65-82.9,92.81-120.23h-13.5Z"/>
    <path class="cls-1" d="M1893.98,896.47c-43.45,56.53-77.2,91.33-107.37,91.33-15.61,0-23.41-10.76-23.41-27.63,0-20.46,14.55-46.83,42.4-90.07l319.14-507.72h-50.62l-175.5,280.33h-1.27c12.45-45.56-4.43-78.04-43.66-78.04-28.9,0-69.19,14.34-127.4,60.11-58.22,45.57-118.55,108.21-157.78,159.89h13.5c21.09-26.37,46.83-56.53,78.26-86.48h1.05c-36.91,40.71-70.45,92.6-91.76,134.58-16.66,34.8-25.73,63.7-25.73,92.6,0,48.09,27,76.99,63.91,76.99,23.41,0,48.09-13.29,75.94-39.66,21.3-20.46,45.98-50.62,63.91-72.14h1.05c-11.18,19.19-15.61,36.07-15.61,51.68,0,37.34,14.55,60.12,43.66,60.12,45.77,0,79.31-39.66,125.29-97.45,28.9-37.34,62.65-82.9,92.81-120.23h-13.5c-26.79,33.75-59.27,75.73-87.33,111.8ZM1675.87,954.27c-22.36,21.52-41.34,32.48-63.7,32.48-25.73,0-43.66-21.73-34.8-59.06,4.64-21.52,23.62-57.58,34.8-78.04,34.59-63.7,69.4-114.33,121.92-180.35,35.86-44.51,79.52-90.28,121.92-90.28,53.79,0,35.86,73.4,0,129.94l-50.41,79.31c-39.02,62.65-91.76,128.67-129.73,166.01Z"/>
    <path class="cls-1" d="M2394.11,784.67c-26.79,33.75-59.27,75.73-87.33,111.8-43.66,56.53-77.2,91.33-107.36,91.33-15.61,0-23.41-10.76-23.41-27.63,0-20.46,13.29-45.56,42.4-90.07l184.57-293.41h-45.77l-49.15,76.99h-1.27c17.93-56.53-1.05-89.01-40.29-89.01-28.9,0-69.19,14.34-127.4,60.11-58.22,45.57-118.55,108.21-157.78,159.89h13.5c21.09-26.37,46.83-56.53,78.26-86.48h1.05c-36.91,40.71-70.45,92.6-91.76,134.58-16.66,34.8-25.73,63.7-25.73,92.6,0,48.09,27,76.99,63.91,76.99,23.41,0,48.09-13.29,75.94-39.66,21.3-20.46,45.98-50.62,63.7-72.14h1.27c-11.18,20.46-15.61,36.07-15.61,51.68,0,37.34,14.34,60.12,43.45,60.12,45.98,0,79.52-39.66,125.3-97.45,29.11-37.34,62.86-82.9,93.02-120.23h-13.5ZM2088.67,954.27c-22.36,21.52-41.34,32.48-63.7,32.48-25.73,0-43.66-21.73-34.8-59.06,4.64-21.52,23.62-57.58,34.8-78.04,34.59-63.7,69.4-114.33,121.92-180.35,35.86-44.51,79.31-90.28,121.92-90.28,53.79,0,35.86,73.4,0,129.94l-50.41,79.31c-39.02,62.65-91.76,128.67-129.72,166.01Z"/>
    <path class="cls-1" d="M2520.5,896.51c-42.52,56.52-77.21,91.38-107.4,91.38-15.68,0-23.5-10.81-23.5-27.64,0-20.45,15.66-45.69,42.52-87.79l306.82-489.77c-16.34-1.33-32.69-2.44-49.03-3.67l-62,99.03c-47.01,75.76-136.51,179.17-233.84,306.64h13.43c45.87-58.91,92.86-120.24,132.02-165.95h1.11l-157.75,250.11c-16.79,24.06-25.73,49.31-25.73,74.57,0,34.85,17.9,58.91,45.87,58.91,45.87,0,79.43-39.67,125.3-97.39,29.09-37.28,62.64-82.97,92.86-120.26h-13.43c-26.86,34.87-58.17,75.76-87.26,111.83Z"/>
    <path class="cls-1" d="M671.83,1460.93c-25.95-49.78-60.33-87.75-102.94-113.7-42.82-25.94-88.59-38.81-137.11-38.81,1.05,0,8.86-1.9,23.41-5.7,14.55-3.8,35.44-15.19,62.44-34.17,27-18.98,40.71-49.57,40.71-91.75,0-34.6-11.18-62.02-33.33-82.69-22.15-20.46-48.94-33.96-80.37-40.5-30.16-6.54-85.43-9.7-165.37-9.7h-89.44v3.16c10.97,0,19.62,5.91,26.16,17.93,7.38,15.19,11.18,32.9,11.18,53.58v241.73c-48.51,16.24-93.02,44.3-132.89,84.37-30.37,30.16-53.58,65.6-69.82,106.31-16.24,40.5-24.47,81.84-24.47,124.03s8.02,84.37,23.62,123.4c15.61,38.81,38.18,74.04,67.29,105.47,63.91,65.81,146.6,98.93,248.27,98.93,60.54,0,119.6-15.19,176.97-45.56,57.16-30.16,103.99-73.2,140.27-128.88,36.28-55.68,54.42-119.18,54.42-190.69s-13.08-126.98-39.02-176.76ZM279.28,1055.31c85.43,0,139.43,4.85,162.21,14.55,43.24,16.24,64.76,51.89,64.76,106.95,0,51.04-23.2,87.75-69.61,110.53-22.78,9.7-57.37,15.61-103.99,17.72h-53.37v-249.74ZM627.32,1802.43c-21.09,55.69-55.9,102.51-103.99,140.27-48.09,37.97-109.47,56.74-184.15,56.74-100.62,0-182.88-32.91-246.58-98.93-28.05-30.16-49.99-64.76-65.81-103.78-15.61-39.02-23.41-79.52-23.41-121.71s8.02-81.63,24.26-121.71c16.24-40.08,39.66-75.09,69.82-105.47,36.7-39.02,79.94-66.44,129.73-82.68v178.45c0,22.78-4.22,41.13-12.87,55.06-7.59,10.97-15.82,16.24-24.47,16.24v3.38h125.08v-3.38c-9.7,0-18.14-5.9-25.1-17.72-7.17-12.02-10.55-24.47-10.55-37.34v-206.08c8.65-2.11,22.15-3.16,40.5-3.16v-3.38c-18.35,0-31.85.63-40.5,1.69v-30.8h68.13c54,0,104.62,10.76,151.66,32.48,47.04,21.51,85.43,56.11,115.17,103.78,29.74,47.67,44.72,108.21,44.72,181.61,0,55.26-10.55,110.74-31.64,166.43Z"/>
    <path class="cls-1" d="M1165.2,1637.69c-12.02,19.41-32.06,32.27-60.12,38.18-28.27,5.91-68.76,8.86-121.71,8.86h-136.26v-267.67h157.36c19.41,0,35.86,3.8,49.57,11.39,13.5,7.59,20.25,15.61,20.25,24.26v1.69h6.54v-82.68h-6.54c0,7.38-6.75,14.98-20.25,22.57-13.71,7.59-30.16,11.39-49.57,11.39h-157.36v-272.53h123.18c52.1,0,92.39,2.95,121.08,8.86,28.48,5.91,47.67,19.2,57.59,39.87h8.02l-12.87-60.12h-384.74v3.16c9.91,0,18.14,6.54,25.31,19.62,6.96,12.86,10.55,30.16,10.55,51.89v425.03c0,21.73-3.59,39.02-10.55,51.89-7.17,13.08-15.4,19.62-25.31,19.62v3.16h400.78l11.39-58.43h-6.33Z"/>
    <path class="cls-1" d="M1616.18,1437.3c-21.73-24.26-47.46-43.45-76.99-57.58-29.95-14.13-70.24-30.37-121.08-48.72-51.89-17.3-90.28-32.9-115.17-47.04-24.89-13.92-37.34-32.48-37.34-55.05,0-32.48,16.87-56.53,50.41-72.35,33.54-15.61,69.82-23.41,108.63-23.41,30.37,0,60.54,5.7,90.91,17.09,30.37,11.18,52.94,26.58,68.13,46.19,15.19,20.46,26.58,38.81,34.17,55.05h6.33l-12.87-66.44-1.69-9.7c-1.05-2.11-2.95-3.8-5.69-4.85-2.74-1.06-4.64-2.32-5.7-3.38-10.76-7.59-21.52-13.5-32.48-17.72-43.24-18.35-88.17-27.63-134.58-27.63s-83.32,7.6-116.86,22.78c-50.83,20.46-76.15,53.37-76.15,98.93,0,37.76,16.45,67.29,49.36,88.38,33.12,21.09,82.47,43.66,148.5,67.29,62.65,22.78,109.47,43.87,140.27,63.28,31.01,19.62,46.4,45.98,46.4,79.52,0,40.08-19.62,74.67-58.43,103.99-17.3,12.86-38.81,22.57-64.12,29.11-25.52,6.54-51.05,9.7-76.99,9.7-14.13,0-26.37-.42-36.7-1.68-10.13-1.06-19.2-2.11-26.58-3.17-17.51-3.16-34.8-8.65-52.1-16.24-34.59-17.3-59.9-45.35-76.15-84.37l-4.85-11.39h-6.54l9.7,66.66,1.69,9.7c1.05,1.06,2.74,2.32,4.85,4.01,2.11,1.69,4.22,2.53,6.54,2.53,6.33,5.27,17.3,11.18,32.48,17.72,40.92,18.35,87.96,27.63,141.12,27.63,60.54,0,109.68-11.39,147.65-34.17,38.81-22.57,64.33-50.84,76.15-84.37,5.48-13.92,8.23-30.8,8.23-50.21,0-35.65-10.97-65.81-32.48-90.07Z"/>
    <path class="cls-1" d="M2171.15,1121.75h-493.37l-12.87,60.12h6.54c9.7-20.67,24.47-33.96,44.51-39.87,20.04-5.9,51.05-8.86,93.23-8.86h89.22v488.31c0,21.73-3.8,40.08-11.18,55.27-7.59,10.76-15.82,16.24-24.47,16.24v3.16h123.4v-1.69c-9.7-1.05-18.14-7.8-25.1-20.25-7.17-12.44-10.55-25.1-10.55-38.18v-502.87h89.22c42.19,0,73.19,2.95,93.23,8.86,20.04,5.91,34.8,19.2,44.72,39.87h6.33l-12.87-60.12Z"/>
    <path class="cls-1" d="M2330.82,1142.84c7.17-11.81,15.4-17.93,25.31-17.93v-3.16h-123.4v3.16c12.87,0,23.2,10.97,30.8,32.48,3.16,10.76,4.85,23.84,4.85,39.02v425.03c0,14.14-1.69,27-4.85,39.02-7.59,21.52-17.93,32.48-30.8,32.48v3.16h123.4v-3.16c-9.91,0-18.14-6.12-25.31-17.93-6.96-11.81-10.55-24.89-10.55-39.02v-454.14c0-14.13,3.59-27.21,10.55-39.02Z"/>
    <path class="cls-1" d="M3409.12,1757.72c-19.41,21.73-42.19,41.34-68.13,59.27-25.94,17.93-51.89,31.64-77.83,41.34-40.08,15.19-79.1,22.78-116.86,22.78-43.24,0-90.49-10.34-141.33-30.8l-327.58-136.26c-28.26-12.02-57.37-21.73-87.75-29.32-30.16-7.59-50.84-10.76-61.59-9.7v-257.97h159.04c19.41,0,35.86,3.8,49.36,11.39,13.5,7.59,20.46,15.61,20.46,24.26v1.69h6.33v-82.68h-6.33c0,7.38-6.96,14.98-20.46,22.57-13.5,7.59-29.95,11.39-49.36,11.39h-159.04v-272.53h124.87c51.89,0,92.18,2.95,120.86,8.86,28.69,5.91,47.88,19.2,57.59,39.87h6.54l-12.87-60.12h-384.53v3.16c10.76,0,19.41,6.54,25.94,19.62,7.38,12.86,11.18,30.16,11.18,51.89v425.03c0,25.95-4.22,44.93-12.87,56.74h3.16c-34.59,5.48-66.44,17.3-95.76,35.86l1.69,4.85c28.05-15.19,59.48-22.78,94.08-22.78,42.19,0,94.08,12.45,155.88,37.34l199.54,82.69,128.25,53.58c54,21.73,103.15,32.48,147.65,32.48,27,0,52.73-2.95,76.99-8.86,24.26-6.12,52.73-15.4,85.22-28.48,55.05-21.73,104.84-56.74,149.34-105.47l-1.69-1.69Z"/>
    <path class="cls-1" d="M3303.65,1437.3c-21.73-24.26-47.46-43.45-77.2-57.58-29.74-14.13-70.03-30.37-120.86-48.72-51.89-17.3-90.28-32.9-115.17-47.04-24.89-13.92-37.34-32.48-37.34-55.05,0-32.48,16.87-56.53,50.41-72.35,33.54-15.61,69.82-23.41,108.63-23.41,30.37,0,60.54,5.7,90.91,17.09,30.16,11.18,52.94,26.58,68.13,46.19,15.19,20.46,26.58,38.81,34.17,55.05h6.33l-12.87-66.44-1.69-9.7c-1.05-2.11-2.95-3.8-5.69-4.85-2.74-1.06-4.64-2.32-5.7-3.38-10.76-7.59-21.52-13.5-32.48-17.72-43.24-18.35-88.17-27.63-134.58-27.63s-83.32,7.6-116.86,22.78c-50.83,20.46-76.15,53.37-76.15,98.93,0,37.76,16.45,67.29,49.36,88.38,33.12,21.09,82.47,43.66,148.5,67.29,62.65,22.78,109.47,43.87,140.27,63.28,31.01,19.62,46.4,45.98,46.4,79.52,0,40.08-19.62,74.67-58.43,103.99-17.3,12.86-38.81,22.57-64.12,29.11-25.52,6.54-51.05,9.7-77.2,9.7-13.92,0-26.16-.42-36.49-1.68-10.13-1.06-19.2-2.11-26.79-3.17-17.3-3.16-34.59-8.65-51.89-16.24-34.59-17.3-59.9-45.35-76.15-84.37l-4.85-11.39h-6.54l9.7,66.66,1.69,9.7c1.05,1.06,2.53,2.32,4.85,4.01,2.11,1.69,4.22,2.53,6.54,2.53,6.33,5.27,17.3,11.18,32.27,17.72,41.13,18.35,88.17,27.63,141.33,27.63,60.54,0,109.68-11.39,147.65-34.17,38.81-22.57,64.33-50.84,76.15-84.37,5.48-13.92,8.23-30.8,8.23-50.21,0-35.65-10.97-65.81-32.48-90.07Z"/>
  </g>
  <g>
    <path class="cls-1" d="M1476.01,3.37l-35.02,53.16c-7.8,11.81-14.34,22.57-19.83,32.06-5.7-10.34-11.81-20.46-18.35-30.8l-35.65-54.42h-29.32l69.82,104.41v76.57h24.05v-76.57L1504.07,3.37h-28.05Z"/>
    <path class="cls-1" d="M1683.57,45.56c-7.17-14.34-17.3-25.52-30.8-33.54-13.5-8.02-28.48-12.02-45.14-12.02-25.52,0-46.41,8.65-62.65,25.52-16.03,17.09-24.26,40.71-24.26,70.66,0,16.03,3.59,31.01,10.55,45.35,6.75,14.13,17.09,25.31,30.37,33.75,13.5,8.23,28.69,12.23,45.77,12.23,15.82,0,30.37-3.8,44.08-11.18,13.5-7.38,24.05-18.35,31.43-32.91,7.38-14.55,11.18-31.01,11.18-49.36s-3.59-34.38-10.55-48.52ZM1651.93,148.08c-11.81,12.65-26.58,18.98-44.72,18.98s-32.27-6.33-44.09-18.77c-11.81-12.66-17.72-29.95-17.72-51.68,0-27.21,6.12-46.83,18.35-58.43,12.23-11.6,27-17.51,43.87-17.51,12.02,0,22.78,2.95,32.27,9.07,9.7,6.12,16.87,14.56,21.94,25.52,5.06,11.18,7.59,24.05,7.59,38.81,0,23.2-5.91,41.13-17.51,54Z"/>
    <path class="cls-1" d="M1846.41,3.37v104.41c0,22.78-3.8,38.18-11.18,46.19-7.59,8.02-20.25,12.02-37.76,12.02-10.34,0-18.98-2.11-26.16-6.12-7.17-4.01-12.23-9.7-15.19-17.3-2.74-7.38-4.22-18.98-4.22-34.8V3.37h-24.05v104.62c0,19.2,2.32,34.38,6.96,45.35,4.64,11.18,12.23,19.62,22.99,25.52,10.97,5.7,24.68,8.65,41.76,8.65s31.64-3.37,42.4-10.12c10.76-6.54,18.14-15.4,22.15-26.16,4.22-10.55,6.33-25.1,6.33-43.24V3.37h-24.05Z"/>
    <path class="cls-1" d="M2041.32,135.21c-6.12-9.7-12.87-17.72-19.83-24.26-3.38-2.96-8.23-5.91-14.55-8.86,17.51-2.53,30.37-8.02,38.6-16.87,8.44-8.86,12.44-19.62,12.44-32.48,0-9.91-2.53-19.2-7.38-27.42-5.06-8.23-11.81-13.92-20.25-17.09-8.44-3.37-20.67-4.85-36.91-4.85h-80.15v180.98h23.84v-80.37h27.84c6.12,0,10.76.21,13.29.84,3.8.84,7.38,2.53,10.97,4.85,3.59,2.32,7.8,6.33,12.23,12.02,4.43,5.9,10.34,14.13,17.3,25.1l24.05,37.55h30.16l-31.64-49.15ZM1988.8,83.32h-51.68V23.2h57.37c13.5,0,23.2,2.95,29.53,8.44,6.12,5.48,9.28,12.44,9.28,21.09,0,5.91-1.48,11.18-4.85,16.24-3.16,5.06-7.8,8.65-13.92,10.97-6.33,2.11-14.77,3.37-25.73,3.37Z"/>
  </g>
</svg>