<?xml version="1.0" encoding="UTF-8"?>
<svg id="Layer_1" data-name="Layer 1" xmlns="http://www.w3.org/2000/svg" viewBox="0 0 3537.48 1904.39">
  <defs>
    <style>
      .cls-1 {
        fill: #550100;
      }
    </style>
  </defs>
  <g>
    <path class="cls-1" d="M1160.65,92.16c-108.18,84.26-183.07,184.95-286.89,365.32-117.96,203.88-264.83,447.08-448.95,447.08-85.09,0-124.82-46.18-124.82-113.8,0-42.86,56.38-39.32,56.38-75.94,0-9.57-6.66-17.89-19.97-17.89-28.71,0-51.8,38.07-51.8,85.5,0,81.76,49.72,135.23,140.22,135.23,204.09,0,388.41-229.05,508.66-455.4,122.33-230.09,157.69-298.96,233.84-359.49l-6.66-10.61ZM1311.9,224.89c0-135.02-119.21-220.52-326.62-220.52-300.2,0-566.08,206.37-566.08,396.11,0,93.62,59.5,130.44,137.93,130.44,185.36,0,290.22-181.41,308.94-332.03h-12.07c-16.64,141.05-120.25,319.13-292.5,319.13-74.89,0-106.93-48.68-106.93-115.25,0-187.24,238.21-385.29,530.71-385.29,202.01,0,271.49,87.79,271.49,200.34,0,141.26-101.52,233.63-283.56,223.02v14.15c93.62,2.5,136.68,45.15,136.68,121.08,0,116.29-109.22,328.5-253.81,328.5-49.51,0-76.14-22.47-76.14-66.37,0-67.61,67.4-150.62,169.97-183.91l-3.33-11.86c-105.89,33.29-180.99,124.62-180.99,193.27,0,53.47,31,81.97,90.5,81.97,158.94,0,302.49-163.72,302.49-312.06,0-80.51-50.76-137.51-131.48-151.66v-1.25c146.88-8.32,284.81-93.62,284.81-227.8Z"/>
    <path class="cls-1" d="M1543.44,702.96l-84.88,110.26c-43.06,55.76-77.18,90.08-107.14,90.08-15.39,0-23.09-10.61-23.09-27.25,0-20.18,13.31-46.18,42.02-86.54l91.54-135.23c29.75-45.15,45.14-75.93,45.14-106.72,0-42.65-21.01-58.04-61.79-61.58-22.05-2.49-34.12-4.78-34.12-22.68,0-35.57,60.75-34.33,60.75-69.9,0-9.57-6.66-17.89-19.97-17.89-33.08,0-54.09,48.68-54.09,83.01,0,16.64,6.66,26.21,17.68,32.04-45.14,67.61-91.54,132.94-152.29,212.41h13.31c55.13-72.4,111.3-150.62,152.29-207.62,4.37,1.25,9.78,2.5,16.43,2.5,25.38,2.29,31,10.61,31,30.79,0,29.54-23.3,60.54-56.38,110.26l-98.2,147.08c-16.43,23.72-25.38,48.68-25.38,73.44,0,34.54,18.72,58.25,45.35,58.25,45.14,0,78.22-39.11,123.58-96.11,29.75-36.82,61.79-81.76,91.54-118.58h-13.31Z"/>
    <path class="cls-1" d="M1754.19,702.96c-26.42,34.33-57.42,74.69-85.92,110.26-42.02,55.76-76.14,90.08-106.1,90.08-15.39,0-23.09-10.61-23.09-27.25,0-20.18,14.35-45.14,40.78-86.54l183.28-291.67h-54.09c-52.01,65.12-104.85,124.41-165.6,205.13h13.31c35.37-46.39,78.22-99.65,115.88-140.01h1.04l-141.26,223.02c-16.43,23.72-25.38,48.68-25.38,73.44,0,34.54,17.68,58.25,45.35,58.25,45.14,0,78.22-39.11,123.58-96.11,28.71-36.82,61.79-81.76,91.54-118.58h-13.31ZM1793.92,348.67c-18.93,0-33.29,16.64-33.29,35.57,0,20.18,14.35,34.32,33.29,34.32,17.68,0,31.83-14.15,31.83-34.32,0-18.93-14.15-35.57-31.83-35.57Z"/>
    <path class="cls-1" d="M2298,293.96l7.07-11.03h-50.14l-6.86,11.03-168.3,269h-1.04c12.07-44.94-4.58-76.98-43.06-76.98-28.71,0-68.44,14.15-125.86,59.29-57.42,44.93-116.92,106.72-155.61,157.69h13.31c20.8-26.21,46.39-55.76,77.18-85.5h1.04c-36.41,40.36-69.48,91.33-90.5,132.94-16.43,34.33-25.38,62.83-25.38,91.33,0,47.43,26.63,75.93,63.04,75.93,23.09,0,47.43-13.1,74.89-39.11,21.01-20.18,45.35-49.93,63.04-71.36h1.04c-11.03,19.14-15.39,35.58-15.39,51.18,0,36.61,14.35,59.29,43.06,59.29,45.14,0,78.22-39.11,123.58-96.11,28.71-36.82,61.79-81.76,91.54-118.58h-13.31c-26.42,33.08-58.46,74.69-85.92,110.26-43.06,55.76-76.14,90.08-106.1,90.08-15.39,0-23.09-10.61-23.09-27.25,0-20.18,14.35-46.18,42.02-88.83l309.77-493.26ZM1860.08,870.23c-22.05,21.22-40.77,31.83-62.83,31.83-25.38,0-43.06-21.22-34.12-58.04,4.37-21.22,23.09-56.8,34.12-76.98,34.12-63.04,68.44-112.76,120.25-177.87,35.37-43.9,78.43-89.04,120.25-89.04,53.05,0,35.37,72.4,0,128.15l-49.51,78.22c-38.7,61.58-90.5,126.9-128.15,163.73Z"/>
    <path class="cls-1" d="M2568.45,702.96c-26.42,33.08-58.46,74.69-86.13,110.26-42.86,55.76-75.93,90.08-105.89,90.08-15.39,0-23.09-10.61-23.09-27.25,0-20.18,13.11-45.14,41.82-88.83l182.24-289.38h-45.35l-48.47,75.73h-1.25c17.68-55.55-1.04-87.59-39.53-87.59-28.71,0-68.44,14.15-125.86,59.29-57.42,44.93-116.92,106.72-155.61,157.69h13.31c20.8-26.21,46.19-55.76,77.18-85.5h1.04c-36.41,40.36-69.49,91.33-90.5,132.94-16.44,34.33-25.38,62.83-25.38,91.33,0,47.43,26.63,75.93,63.04,75.93,23.09,0,47.43-13.1,74.89-39.11,21.01-20.18,45.35-49.93,63.04-71.36h1.04c-11.03,20.18-15.39,35.58-15.39,51.18,0,36.61,14.35,59.29,42.86,59.29,45.35,0,78.43-39.11,123.78-96.11,28.5-36.82,61.79-81.76,91.54-118.58h-13.31ZM2267.21,870.23c-22.05,21.22-40.78,31.83-62.83,31.83-25.38,0-43.06-21.22-34.33-58.04,4.58-21.22,23.3-56.8,34.33-76.98,34.12-63.04,68.45-112.76,120.25-177.87,35.37-43.9,78.43-89.04,120.25-89.04,53.05,0,35.37,72.4,0,128.15l-49.72,78.22c-38.49,61.58-90.29,126.9-127.94,163.73Z"/>
    <path class="cls-1" d="M3531.89,1311.9c-16.02-11.65-54.92-36.2-68.44-52.22-113.17-138.14-120.45-290.01-203.67-414.21l-45.77-47.23,46.39,3.54c13.11,2.29,41.61-1.87,53.05-9.16,46.19-30.16,28.71-135.23-17.89-156.03-60.75-27.67-152.08,47.64-197.22,83.01-4.79,1.46-12.07-2.91-18.93-3.33-6.03-.42-12.69,2.5-15.6,2.08-3.95-1.04-48.89-48.89-57.21-56.38-52.43-46.6-134.39-100.9-177.67-11.86-36.41,75.52,2.29,128.36,86.96,122.95l86.54-13.11c-42.44,19.14-163.31,95.7-206.17,116.09-47.02,22.26-80.72,29.75-145,39.74-8.95,1.66-24.76.42-32.87,0l-6.87-.62c-1.87,0-3.54-.42-5.2-.62-1.04-.21-1.87-.21-2.91-.42-1.04-.21-1.87-.42-2.7-.62-.21,0-1.04-.21-1.04-.21-1.87-.42-3.54-1.04-5.41-1.66-5.2-2.08-10.4-4.58-15.19-7.91-3.54-2.5-9.36-8.74-11.65-11.86-.21,0-.21-.21-.21-.21-.21-.42-.62-1.04-.83-1.66-1.04-2.5-1.87-5.61-2.08-8.32v-.42c-.21-1.66-.21-3.33-.21-5.2,0-20.18,15.39-45.14,41.81-86.54l310.6-495.55,6.86-11.03h-50.76l-6.86,11.03-66.78,106.52c-46.19,74.68-134.6,176.63-230.51,302.49h13.31c45.14-58.25,91.54-118.58,130.02-163.73h1.25l-155.61,246.73c-16.64,23.72-25.38,48.68-25.38,73.44,0,11.65,1.25,22.26,5.2,31,1.46,4.16,4.37,7.28,6.87,10.61,1.25,1.46,2.7,2.91,3.95,4.16,1.46,1.46,2.91,2.7,4.16,3.74,1.25,1.04,2.29,1.87,3.33,2.5,1.04.62,2.08,1.46,3.33,1.87,69.48,41.61,205.54-2.29,273.99-32.46,45.35-19.76,95.7-60.95,138.97-83.42,15.39-7.91,56.79-28.5,71.36-24.34,1.87.42,14.85,13.03,20.26,15.11,20.39,7.28,37.58-1.38,44.86-19.69,58.46,19.14,114.63,48.68,138.35,107.14,58.46,142.09,80.72,252.56,173.09,358.66,18.72,21.22,85.3,78.01,110.88,82.17,7.91,1.04,9.78,1.66,1.25-4.58ZM3043.62,737.92c-18.52-3.54-36.2,1.66-55.13,2.7-34.53,2.08-116.82,32.36-145.32,7.6-20.18-17.69,3.23-79.37,15.72-99.55,23.72-37.45,47.12-40.69,77.91-24.46,38.9,20.39,77.91,77.93,109.53,107.68l-2.7,6.03ZM3156.37,754.97c-7.28-1.46-45.35-9.16-46.81-11.44-.83-1.46-2.08-4.99-1.04-6.66.83-.83,15.19-11.44,17.47-13.31,29.13-20.39,109.89-81.1,145.05-79.64,50.97,2.08,57.11,137.43,7.39,147.83-37.66,7.7-86.08-29.91-122.07-36.77Z"/>
    <path class="cls-1" d="M662.4,1369.73c-25.59-48.89-59.5-86.33-101.52-111.92-42.23-25.59-87.17-38.49-135.23-38.49,1.04,0,8.74-1.87,23.09-5.62,14.56-3.74,34.95-14.77,61.58-33.49,26.84-18.72,40.15-48.89,40.15-90.5,0-34.12-11.03-61.37-32.87-81.55-21.84-20.18-48.27-33.7-79.26-39.94-29.75-6.45-84.26-9.78-163.1-9.78h-88v3.33c10.61,0,19.14,5.83,25.59,17.47,7.28,14.98,11.23,32.66,11.23,52.84v238.41c-48.06,16.02-91.95,43.9-131.27,83.22-29.96,29.96-52.84,64.91-68.86,104.85-16.02,40.15-23.92,80.93-23.92,122.54s7.7,83.22,23.09,121.49c15.6,38.49,37.66,73.23,66.36,104.02,63.04,65.12,144.59,97.78,244.86,97.78,59.71,0,117.96-14.98,174.54-44.94,56.38-29.75,102.56-72.19,138.35-127.11,35.78-54.92,53.67-117.75,53.67-188.07s-12.9-125.45-38.49-174.55ZM275.24,969.67c84.26,0,137.51,4.78,159.98,14.56,42.65,15.81,64.08,51.18,64.08,105.47,0,50.14-23.09,86.55-68.86,108.8-22.47,9.57-56.59,15.6-102.36,17.69h-52.84v-246.53ZM618.5,1706.75c-20.8,54.92-55.13,100.9-102.56,138.35-47.43,37.24-107.97,55.96-181.62,55.96-99.24,0-180.16-32.45-243.2-97.57-27.67-29.96-49.31-64.08-64.7-102.36-15.6-38.49-23.3-78.43-23.3-120.04s7.91-80.51,23.93-120.04c16.02-39.53,39.11-74.27,68.86-104.02,36.2-38.49,79.05-65.74,128.15-81.55v176c0,22.26-4.37,40.57-12.9,54.3-7.49,10.82-15.39,16.02-23.92,16.02v3.33h123.16v-3.33c-9.57,0-17.89-5.83-24.76-17.47-7.07-11.86-10.4-24.13-10.4-36.82v-203.25c8.53-2.29,21.84-3.33,39.94-3.33v-3.12c-18.1,0-31.41.62-39.94,1.66v-30.58h67.2c53.26,0,103.19,10.82,149.58,32.04,46.39,21.43,84.26,55.55,113.59,102.56,29.33,46.81,44.1,106.52,44.1,179.12,0,54.51-10.4,109.22-31.21,164.14Z"/>
    <path class="cls-1" d="M1149,1544.28c-11.86,19.14-31.62,31.62-59.29,37.65-27.67,5.83-67.82,8.74-120.04,8.74h-134.39v-264h155.2c19.14,0,35.58,3.75,48.89,11.23,13.31,7.28,19.97,15.39,19.97,23.93v1.66h6.45v-81.76h-6.45c0,7.49-6.66,14.98-19.97,22.47-13.31,7.49-29.75,11.23-48.89,11.23h-155.2v-268.79h121.7c51.18,0,90.91,2.91,119.21,8.74,28.09,5.83,47.23,18.93,56.79,39.11h7.91l-12.69-59.08h-379.26v3.12c9.57,0,17.68,6.45,24.76,19.14,6.87,12.9,10.4,29.96,10.4,51.39v419.2c0,21.43-3.54,38.49-10.4,51.18-7.07,12.9-15.19,19.14-24.76,19.14v3.33h395.27l11.03-57.63h-6.24Z"/>
    <path class="cls-1" d="M1593.79,1346.64c-21.43-24.13-46.6-43.07-75.93-56.79-29.33-13.94-69.07-29.96-119.21-48.06-51.39-17.06-89.25-32.46-113.8-46.39-24.55-13.94-36.82-32.04-36.82-54.51,0-31.83,16.64-55.75,49.72-71.15,33.08-15.39,68.86-23.09,107.14-23.09,29.96,0,59.71,5.41,89.66,16.64,29.96,11.23,52.22,26.42,67.2,45.77,14.98,20.18,26.21,38.28,33.7,54.3h6.24l-12.69-65.53-1.66-9.57c-1.04-2.29-2.91-3.75-5.62-4.99-2.7-1.04-4.37-2.08-5.62-3.12-10.61-7.49-21.22-13.31-31.83-17.68-42.86-18.1-86.96-27.05-132.94-27.05s-82.17,7.49-115.25,22.26c-50.14,20.39-75.1,52.84-75.1,97.78,0,37.24,16.23,66.37,48.68,87.17,32.66,20.8,81.34,42.85,146.46,66.36,62,22.47,107.97,43.27,138.55,62.41,30.37,19.14,45.56,45.35,45.56,78.43,0,39.53-19.35,73.65-57.63,102.35-17.06,12.9-38.07,22.47-63.24,28.92-25.17,6.45-50.35,9.57-75.93,9.57-13.94,0-26-.62-35.99-1.67-10.19-1.04-18.93-2.08-26.42-3.12-17.06-3.33-34.12-8.53-51.39-16.02-34.12-17.06-59.08-44.73-75.1-83.22l-4.79-11.23h-6.45l9.57,65.53,1.66,9.78c1.04,1.04,2.7,2.29,4.78,3.95,2.08,1.66,4.37,2.29,6.45,2.29,6.45,5.41,17.06,11.23,32.04,17.69,40.36,18.1,86.96,27.25,139.18,27.25,59.71,0,108.18-11.23,145.63-33.7,38.28-22.26,63.45-50.14,75.1-83.22,5.41-13.73,8.11-30.37,8.11-49.51,0-35.16-10.61-64.91-32.04-88.83Z"/>
    <path class="cls-1" d="M2141.14,1035.41h-486.6l-12.69,59.08h6.45c9.57-20.18,24.13-33.28,43.9-39.11,19.76-5.83,50.35-8.74,91.95-8.74h88v481.61c0,21.43-3.54,39.53-11.03,54.3-7.49,10.82-15.6,16.02-24.13,16.02v3.33h121.7v-1.67c-9.57-1.04-17.89-7.7-24.76-19.97-7.07-12.28-10.4-24.76-10.4-37.66v-495.97h88c41.61,0,72.19,2.91,91.95,8.74,19.76,5.83,34.33,18.93,44.1,39.11h6.24l-12.69-59.08Z"/>
    <path class="cls-1" d="M2298.63,1056.21c7.07-11.86,15.39-17.68,24.96-17.68v-3.12h-121.7v3.12c12.9,0,22.89,10.61,30.37,32.04,3.33,10.61,4.78,23.51,4.78,38.49v419.2c0,13.94-1.46,26.63-4.78,38.49-7.49,21.22-17.48,31.83-30.37,31.83v3.33h121.7v-3.33c-9.57,0-17.89-5.82-24.96-17.47-6.87-11.86-10.4-24.55-10.4-38.49v-448.12c0-13.73,3.54-26.63,10.4-38.28Z"/>
    <path class="cls-1" d="M3362.13,1662.65c-19.14,21.43-41.61,40.77-67.2,58.46-25.59,17.47-51.18,31.21-76.77,40.77-39.53,14.98-78.01,22.47-115.25,22.47-42.65,0-89.04-10.19-139.18-30.37l-323.29-134.6c-27.88-11.65-56.59-21.22-86.55-28.71-29.75-7.49-50.14-10.61-60.75-9.57v-254.43h156.86c19.14,0,35.37,3.75,48.89,11.23,13.31,7.28,19.97,15.39,19.97,23.93v1.66h6.24v-81.76h-6.24c0,7.49-6.66,14.98-19.97,22.47-13.52,7.49-29.75,11.23-48.89,11.23h-156.86v-268.79h123.16c51.39,0,90.91,2.91,119.21,8.74,28.29,5.83,47.22,18.93,57,39.11h6.24l-12.69-59.08h-379.26v3.12c10.61,0,19.14,6.45,25.59,19.14,7.49,12.9,11.23,29.96,11.23,51.39v419.2c0,25.59-4.37,44.31-12.9,55.96h3.12c-34.12,5.41-65.53,17.06-94.24,35.16l1.46,4.79c27.88-14.77,58.67-22.26,92.79-22.26,41.61,0,92.99,12.27,153.74,36.82l196.8,81.55,126.49,52.84c53.26,21.22,101.73,32.04,145.63,32.04,26.63,0,52.01-3.12,75.93-8.95,24.13-5.82,52.01-15.19,84.05-27.87,54.51-21.43,103.4-55.96,147.29-104.02l-1.66-1.67Z"/>
    <path class="cls-1" d="M3258.11,1346.64c-21.43-24.13-46.81-43.07-75.93-56.79-29.54-13.94-69.28-29.96-119.41-48.06-51.18-17.06-89.04-32.46-113.59-46.39-24.55-13.94-36.82-32.04-36.82-54.51,0-31.83,16.64-55.75,49.72-71.15,33.08-15.39,68.86-23.09,107.14-23.09,29.96,0,59.71,5.41,89.66,16.64,29.96,11.23,52.22,26.42,67.2,45.77,14.98,20.18,26.21,38.28,33.7,54.3h6.24l-12.69-65.53-1.66-9.57c-1.04-2.29-2.91-3.75-5.62-4.99-2.7-1.04-4.58-2.08-5.62-3.12-10.61-7.49-21.22-13.31-32.04-17.68-42.65-18.1-86.96-27.05-132.73-27.05s-82.18,7.49-115.25,22.26c-50.14,20.39-75.1,52.84-75.1,97.78,0,37.24,16.23,66.37,48.68,87.17,32.66,20.8,81.34,42.85,146.46,66.36,61.79,22.47,107.97,43.27,138.35,62.41,30.58,19.14,45.77,45.35,45.77,78.43,0,39.53-19.35,73.65-57.63,102.35-17.06,12.9-38.28,22.47-63.24,28.92-25.17,6.45-50.35,9.57-75.93,9.57-13.94,0-26-.62-36.2-1.67-9.99-1.04-18.93-2.08-26.21-3.12-17.27-3.33-34.33-8.53-51.39-16.02-34.12-17.06-59.08-44.73-75.1-83.22l-4.79-11.23h-6.45l9.57,65.53,1.66,9.78c1.04,1.04,2.7,2.29,4.78,3.95,2.08,1.66,4.16,2.29,6.45,2.29,6.24,5.41,17.06,11.23,32.04,17.69,40.36,18.1,86.75,27.25,139.18,27.25,59.71,0,108.18-11.23,145.63-33.7,38.28-22.26,63.45-50.14,75.1-83.22,5.41-13.73,8.11-30.37,8.11-49.51,0-35.16-10.82-64.91-32.04-88.83Z"/>
  </g>
  <g>
    <path class="cls-1" d="M1662.86,3.33l-34.53,52.43c-7.7,11.86-14.15,22.26-19.56,31.62-5.62-9.99-11.65-20.18-18.1-30.16l-35.16-53.88h-28.92l68.86,102.98v75.73h23.72v-75.73L1690.53,3.33h-27.67Z"/>
    <path class="cls-1" d="M1867.57,44.93c-7.07-14.15-17.06-25.17-30.37-33.08-13.31-7.91-28.09-11.86-44.52-11.86-25.38,0-45.77,8.53-61.79,25.17-16.02,16.85-23.93,40.15-23.93,69.69,0,15.81,3.54,30.58,10.19,44.73,6.87,13.94,16.85,25.17,30.17,33.29,13.31,8.11,28.29,12.07,45.14,12.07,15.6,0,29.96-3.54,43.48-11.03,13.31-7.28,23.72-18.1,31-32.45,7.28-14.36,11.03-30.58,11.03-48.68s-3.54-33.7-10.4-47.85ZM1836.36,146.04c-11.65,12.48-26.21,18.72-44.11,18.72s-31.83-6.24-43.48-18.52c-11.65-12.48-17.48-29.33-17.48-50.97,0-26.84,6.03-45.98,18.1-57.63,12.07-11.44,26.63-17.27,43.27-17.27,11.86,0,22.47,3.12,31.83,8.94,9.57,6.03,16.64,14.56,21.64,25.38,4.99,10.82,7.49,23.51,7.49,38.07,0,22.88-5.82,40.77-17.27,53.26Z"/>
    <path class="cls-1" d="M2028.18,3.33v102.98c0,22.47-3.74,37.66-11.03,45.56-7.49,7.91-19.97,11.86-37.24,11.86-10.19,0-18.72-2.08-25.8-6.03-7.07-3.95-12.07-9.57-14.98-17.06-2.7-7.28-4.16-18.73-4.16-34.33V3.33h-23.72v103.19c0,18.93,2.29,33.91,6.86,44.73,4.58,11.03,12.07,19.35,22.68,25.17,10.82,5.62,24.34,8.53,41.19,8.53s31-3.33,41.61-9.78c10.61-6.66,18.1-15.39,22.05-25.8,4.16-10.61,6.24-24.96,6.24-42.86V3.33h-23.72Z"/>
    <path class="cls-1" d="M2220.4,133.35c-6.24-9.57-12.69-17.47-19.56-23.72-3.33-2.91-8.11-6.03-14.35-8.95,17.27-2.29,29.96-7.9,38.07-16.64,8.32-8.74,12.27-19.35,12.27-32.04,0-9.78-2.5-18.73-7.28-26.84-4.99-8.11-11.65-13.94-19.97-17.06-8.32-3.33-20.39-4.78-36.41-4.78h-79.05v178.71h23.51v-79.47h27.46c6.03,0,10.4.42,13.11.83,3.74,1.04,7.28,2.49,10.82,4.78,3.54,2.29,7.49,6.24,12.07,12.07,4.37,5.62,10.19,13.73,17.06,24.55l23.72,37.24h29.75l-31.21-48.68ZM2168.6,82.17h-50.97V23.09h56.59c13.31,0,22.89,2.71,29.13,8.12,6.03,5.41,9.15,12.27,9.15,20.8,0,5.82-1.66,11.23-4.78,16.02-3.12,5-7.7,8.53-13.94,10.82-6.03,2.08-14.35,3.33-25.17,3.33Z"/>
  </g>
</svg>